<svg width="13" height="9" viewBox="0 0 13 9" fill="none" xmlns="http://www.w3.org/2000/svg">
    <path d="M12.4905 8.45985H11.0625V0.0478516H12.4905V8.45985Z" fill="white" />
    <path
        d="M3.74943 8.45985C2.58943 8.45985 1.68543 8.15985 1.03743 7.55985C0.38943 6.95185 0.0654297 6.07185 0.0654297 4.91985V0.0478516H1.49343V5.09985C1.49343 5.76385 1.69743 6.28385 2.10543 6.65985C2.52143 7.02785 3.06943 7.21185 3.74943 7.21185H5.51343C6.19343 7.21185 6.73743 7.02785 7.14543 6.65985C7.56143 6.28385 7.76943 5.76385 7.76943 5.09985V0.0478516H9.19743V4.91985C9.19743 6.07185 8.87343 6.95185 8.22543 7.55985C7.57743 8.15985 6.67343 8.45985 5.51343 8.45985H3.74943Z"
        fill="white" />
</svg>