<svg width="57" height="10" viewBox="0 0 57 10" fill="none" xmlns="http://www.w3.org/2000/svg">
    <path d="M56.9226 8.99989H55.4946V0.587891H56.9226V8.99989Z" fill="white" />
    <path
        d="M48.1816 8.99989C47.0216 8.99989 46.1176 8.69989 45.4696 8.09989C44.8216 7.49189 44.4976 6.61189 44.4976 5.45989V0.587891H45.9256V5.63989C45.9256 6.30389 46.1296 6.82389 46.5376 7.19989C46.9536 7.56789 47.5016 7.75189 48.1816 7.75189H49.9456C50.6256 7.75189 51.1696 7.56789 51.5776 7.19989C51.9936 6.82389 52.2016 6.30389 52.2016 5.63989V0.587891H53.6296V5.45989C53.6296 6.61189 53.3056 7.49189 52.6576 8.09989C52.0096 8.69989 51.1056 8.99989 49.9456 8.99989H48.1816Z"
        fill="white" />
    <path
        d="M41.8791 4.044C41.8631 3.26 41.8471 2.832 41.8311 2.76C41.7591 2.344 41.4711 2.076 40.9671 1.956C40.6391 1.876 39.9991 1.836 39.0471 1.836H37.3311C36.1871 1.836 35.4471 1.944 35.1111 2.16C34.6951 2.432 34.4831 3.06 34.4751 4.044H41.8791ZM43.2351 6.516C43.2351 7.588 42.8871 8.288 42.1911 8.616C41.6711 8.872 40.6351 9 39.0831 9H37.2231C36.0471 9 35.1911 8.9 34.6551 8.7C34.0711 8.484 33.6671 8.084 33.4431 7.5C33.2431 6.964 33.1431 6.108 33.1431 4.932C33.1431 3.668 33.2311 2.764 33.4071 2.22C33.6071 1.58 33.9951 1.14 34.5711 0.900002C35.1231 0.668002 36.0151 0.552002 37.2471 0.552002H39.1071C40.4751 0.552002 41.4871 0.732002 42.1431 1.092C42.7591 1.428 43.1071 1.952 43.1871 2.664C43.2031 2.808 43.2191 3.268 43.2351 4.044C43.2351 4.052 43.2351 4.072 43.2351 4.104V5.268H34.4751C34.4671 6.388 34.6671 7.096 35.0751 7.392C35.3951 7.624 36.1351 7.74 37.2951 7.74H39.0591C40.1151 7.74 40.7991 7.692 41.1111 7.596C41.6231 7.444 41.8751 7.084 41.8671 6.516H43.2351Z"
        fill="white" />
    <path
        d="M31.8296 6.52789C31.8296 7.45589 31.5896 8.11189 31.1096 8.49589C30.6856 8.83189 30.0016 8.99989 29.0576 8.99989H24.8456C22.9976 8.99989 22.0776 8.20389 22.0856 6.61189H23.5376C23.5376 7.34789 24.0576 7.71589 25.0976 7.71589H28.7336C29.2376 7.71589 29.6136 7.64789 29.8616 7.51189C30.1896 7.32789 30.3536 6.99989 30.3536 6.52789C30.3536 5.99189 30.0696 5.62789 29.5016 5.43589C29.1576 5.31589 28.6496 5.25589 27.9776 5.25589C27.7056 5.25589 27.3016 5.26789 26.7656 5.29189C26.2296 5.30789 25.8256 5.31589 25.5536 5.31589C24.4896 5.31589 23.6896 5.18389 23.1536 4.91989C22.4096 4.54389 22.0376 3.87989 22.0376 2.92789C22.0376 2.06389 22.2936 1.44389 22.8056 1.06789C23.2456 0.747891 23.9176 0.587891 24.8216 0.587891H28.8296C30.8056 0.587891 31.7936 1.37989 31.7936 2.96389H30.2816C30.2816 2.22789 29.7536 1.85989 28.6976 1.85989H24.9176C24.0456 1.85989 23.6096 2.22389 23.6096 2.95189C23.6096 3.71189 24.4056 4.09189 25.9976 4.09189C26.2456 4.09189 26.6136 4.07989 27.1016 4.05589C27.5976 4.02389 27.9696 4.00789 28.2176 4.00789C29.3056 4.00789 30.1296 4.15589 30.6896 4.45189C31.4496 4.85189 31.8296 5.54389 31.8296 6.52789Z"
        fill="white" />
    <path
        d="M17.6019 5.11204H14.6979C14.0739 5.11204 13.6099 5.17204 13.3059 5.29204C12.8019 5.49204 12.5499 5.87604 12.5499 6.44404C12.5579 6.98004 12.7979 7.33204 13.2699 7.50004C13.5419 7.60404 14.0099 7.65604 14.6739 7.65604H17.0859C17.9179 7.65604 18.5139 7.54004 18.8739 7.30804C19.2019 7.09204 19.3659 6.74404 19.3659 6.26404C19.3259 5.48804 18.7379 5.10404 17.6019 5.11204ZM20.8779 9.00004H19.3899V8.26804C18.7739 8.76404 18.0139 9.01204 17.1099 9.01204H14.6379C13.4299 9.01204 12.5819 8.87204 12.0939 8.59204C11.4219 8.20804 11.0859 7.46004 11.0859 6.34804H11.1099C11.1259 5.30804 11.4779 4.60004 12.1659 4.22404C12.6619 3.95204 13.4899 3.81604 14.6499 3.81604H17.6259C17.8659 3.81604 18.1339 3.85204 18.4299 3.92404C18.9259 4.03604 19.2539 4.21204 19.4139 4.45204C19.4059 3.46804 19.2539 2.80404 18.9579 2.46004C18.6379 2.10004 18.0059 1.92004 17.0619 1.92004H14.6859C13.2539 1.92004 12.5459 2.33604 12.5619 3.16804H11.0979C11.0899 2.13604 11.5339 1.40404 12.4299 0.972039C13.0139 0.684039 13.7499 0.540039 14.6379 0.540039H17.1939C18.6499 0.540039 19.6859 0.920039 20.3019 1.68004C20.7099 2.17604 20.9139 2.78404 20.9139 3.50404C20.9139 3.67204 20.9019 3.82004 20.8779 3.94804V9.00004Z"
        fill="white" />
    <path
        d="M7.16413 8.99989H0.432129V0.587891H6.62413C7.47213 0.587891 8.11213 0.719891 8.54413 0.983891C9.07213 1.31989 9.33613 1.88789 9.33613 2.68789C9.33613 3.14389 9.30413 3.49189 9.24013 3.73189C9.13613 4.10789 8.92813 4.37189 8.61613 4.52389C9.38413 4.73989 9.76813 5.40789 9.76813 6.52789C9.76813 7.42389 9.56013 8.05989 9.14413 8.43589C8.72813 8.81189 8.06813 8.99989 7.16413 8.99989ZM6.63613 1.84789H1.86013V3.95989H6.64813C7.49613 3.95989 7.92013 3.61589 7.92013 2.92789C7.92013 2.20789 7.49213 1.84789 6.63613 1.84789ZM6.92413 5.23189H1.86013V7.72789H6.98413C7.89613 7.72789 8.35213 7.29589 8.35213 6.43189C8.35213 5.63189 7.87613 5.23189 6.92413 5.23189Z"
        fill="white" />
</svg>